<svg width="32" height="32" viewBox="0 0 32 32" fill="none" xmlns="http://www.w3.org/2000/svg">
<g clip-path="url(#clip0_2501_98029)">
<path d="M22.3424 31.9991C22.2533 31.9991 22.1637 31.9864 22.0762 31.9605L15.9994 30.1604L9.92259 31.9605C9.63907 32.0445 9.33242 31.9897 9.09534 31.8128C8.85832 31.6358 8.71875 31.3573 8.71875 31.0615V18.3497C8.71875 17.8319 9.13853 17.4121 9.65632 17.4121H22.3425C22.8603 17.4121 23.2801 17.8319 23.2801 18.3497V31.0615C23.2801 31.3573 23.1405 31.6358 22.9035 31.8128C22.7396 31.9352 22.5424 31.9991 22.3424 31.9991Z" fill="#FC5866"/>
<path d="M22.3431 17.4121H16V30.1604L22.0767 31.9605C22.1642 31.9864 22.2539 31.9991 22.343 31.9991C22.5429 31.9991 22.7401 31.9352 22.904 31.8128C23.1411 31.6358 23.2806 31.3573 23.2806 31.0615V18.3497C23.2806 17.8319 22.8609 17.4121 22.3431 17.4121Z" fill="#F61845"/>
<path d="M15.0625 30.4381L16.0001 30.1604L16.9376 30.4381V17.4121H15.0625V30.4381Z" fill="#F8DBCE"/>
<path d="M16 17.4121V30.1604L16.9376 30.4381V17.4121H16Z" fill="#F9A59D"/>
<path d="M19.2873 25.1343C18.5647 25.1343 17.873 24.8325 17.2441 24.5581C16.7826 24.3567 16.3054 24.1485 15.987 24.1478C15.9864 24.1478 15.9857 24.1478 15.9851 24.1478C15.6583 24.1478 15.1756 24.3555 14.7088 24.5563C13.8731 24.9158 12.9259 25.3233 11.9511 25.006C10.9844 24.6913 10.46 23.8082 9.99728 23.0291C9.73457 22.5868 9.46299 22.1293 9.19096 21.9311C8.94313 21.7505 8.44378 21.6388 7.96093 21.5308C7.0608 21.3294 6.04053 21.1012 5.42242 20.2465C4.80481 19.3926 4.90588 18.3509 4.99507 17.4318C5.04301 16.9379 5.09258 16.4271 4.99814 16.1341C4.89463 15.813 4.54541 15.4119 4.20764 15.024C3.61297 14.341 2.93891 13.567 2.94141 12.5499C2.94391 11.5246 3.62472 10.7502 4.22539 10.0669C4.5621 9.68387 4.91025 9.28784 5.01151 8.9755C5.11027 8.67098 5.06127 8.15119 5.01395 7.64853C4.92794 6.73583 4.83056 5.70144 5.4398 4.86212C6.02922 4.05012 7.02129 3.82548 7.89655 3.62728C8.40521 3.51208 8.93126 3.39301 9.21453 3.18724C9.49805 2.98135 9.77488 2.51731 10.0427 2.06859C10.5029 1.29709 11.0247 0.42265 11.9785 0.114063C12.9659 -0.205337 13.9175 0.209821 14.7571 0.576099C15.2187 0.77749 15.6959 0.985694 16.0143 0.986506H16.0162C16.343 0.986506 16.8257 0.778803 17.2925 0.577974C18.1282 0.218446 19.0752 -0.189273 20.0502 0.128314C21.0169 0.442964 21.5414 1.32603 22.0041 2.10516C22.2668 2.5475 22.5384 3.00485 22.8104 3.20312C23.0582 3.38376 23.5575 3.49545 24.0404 3.60346C24.9406 3.80485 25.9608 4.03312 26.5789 4.88775C27.1966 5.74169 27.0955 6.7834 27.0064 7.70247C26.9583 8.19644 26.9088 8.70717 27.0033 9.00019C27.1067 9.32134 27.456 9.72244 27.7938 10.1103C28.3885 10.7933 29.0625 11.5673 29.06 12.5843C29.0575 13.6097 28.3767 14.3841 27.776 15.0674C27.4393 15.4504 27.0912 15.8464 26.9899 16.1588C26.8912 16.4633 26.9402 16.9831 26.9875 17.4857C27.0735 18.3984 27.1709 19.4328 26.5616 20.2721C25.9722 21.0841 24.9801 21.3088 24.1049 21.507C23.5962 21.6222 23.0702 21.7413 22.7869 21.947C22.5034 22.1528 22.2266 22.6169 21.9589 23.0656C21.4986 23.8372 20.9768 24.7116 20.023 25.0202C19.775 25.1004 19.5293 25.1343 19.2873 25.1343Z" fill="#6FB3E8"/>
<path d="M27.7752 15.067C28.3759 14.3837 29.0567 13.6093 29.0592 12.584C29.0616 11.5669 28.3877 10.7929 27.793 10.11C27.4553 9.72209 27.106 9.321 27.0025 8.99985C26.908 8.70683 26.9575 8.1961 27.0055 7.70212C27.0947 6.78305 27.1957 5.74134 26.5781 4.8874C25.96 4.03271 24.9398 3.80444 24.0396 3.60311C23.5567 3.49511 23.0574 3.38341 22.8096 3.20277C22.5376 3.00457 22.266 2.54716 22.0033 2.10481C21.5406 1.32569 21.0161 0.442618 20.0494 0.127968C19.0744 -0.189619 18.1274 0.2181 17.2917 0.577629C16.8249 0.778457 16.3422 0.98616 16.0154 0.98616C16.0148 0.98616 16.0141 0.98616 16.0135 0.98616C16.0091 0.98616 16.0044 0.985723 16 0.985598V24.148C16.3183 24.1543 16.7884 24.3592 17.2435 24.5578C17.8724 24.8322 18.5641 25.134 19.2867 25.134C19.5288 25.134 19.7744 25.1001 20.0223 25.0199C20.9761 24.7113 21.4978 23.8368 21.9582 23.0653C22.2259 22.6166 22.5027 22.1526 22.7862 21.9467C23.0694 21.741 23.5954 21.6219 24.1041 21.5067C24.9794 21.3085 25.9715 21.0838 26.5609 20.2719C27.1702 19.4325 27.0727 18.3981 26.9868 17.4854C26.9394 16.9828 26.8905 16.463 26.9892 16.1585C27.0904 15.8461 27.4385 15.45 27.7752 15.067Z" fill="#2676E9"/>
<path d="M16 19.7011C12.0734 19.7011 8.87891 16.501 8.87891 12.5674C8.87891 8.63378 12.0734 5.43359 16 5.43359C19.9265 5.43359 23.121 8.63378 23.121 12.5674C23.121 16.501 19.9265 19.7011 16 19.7011Z" fill="#FF9377"/>
<path d="M16 5.43359V19.7011C19.9266 19.7011 23.1211 16.501 23.1211 12.5674C23.1211 8.63378 19.9266 5.43359 16 5.43359Z" fill="#E4624C"/>
<path d="M16.0011 20.3209C11.7336 20.3209 8.26172 16.8428 8.26172 12.5677C8.26172 8.29254 11.7336 4.81445 16.0011 4.81445C20.2687 4.81445 23.7406 8.29254 23.7406 12.5677C23.7406 16.8428 20.2687 20.3209 16.0011 20.3209ZM16.0011 6.68954C12.7676 6.68954 10.1369 9.32649 10.1369 12.5676C10.1369 15.8088 12.7676 18.4457 16.0011 18.4457C19.2347 18.4457 21.8654 15.8088 21.8654 12.5676C21.8654 9.32649 19.2347 6.68954 16.0011 6.68954Z" fill="#E4624C"/>
<path d="M16 4.81445V6.6896C19.2336 6.6896 21.8643 9.32656 21.8643 12.5677C21.8643 15.8089 19.2336 18.4458 16 18.4458V20.3209C20.2675 20.3209 23.7394 16.8428 23.7394 12.5677C23.7394 8.29254 20.2675 4.81445 16 4.81445Z" fill="#CB3B28"/>
<path d="M18.4373 11.16C18.4373 9.81713 17.3447 8.72461 16.0018 8.72461C14.8406 8.72461 13.8356 9.5508 13.6122 10.6891C13.5123 11.1972 13.8434 11.69 14.3515 11.7897C14.8591 11.8895 15.3524 11.5585 15.4521 11.0504C15.5034 10.7893 15.7346 10.5998 16.0018 10.5998C16.3107 10.5998 16.5621 10.8511 16.5621 11.16C16.5621 11.469 16.3107 11.7203 16.0018 11.7203C15.4841 11.7203 15.0643 12.1401 15.0643 12.6579C15.0643 13.1757 15.4841 13.5955 16.0018 13.5955C16.3107 13.5955 16.5621 13.8468 16.5621 14.1558C16.5621 14.4647 16.3107 14.7161 16.0018 14.7161C15.7238 14.7161 15.4852 14.5093 15.4471 14.2352C15.4434 14.2092 15.4416 14.1824 15.4416 14.1558C15.4416 13.6381 15.0218 13.2183 14.504 13.2183C13.9862 13.2183 13.5664 13.6381 13.5664 14.1558C13.5664 14.2689 13.5743 14.3827 13.5898 14.4943C13.7567 15.6898 14.7936 16.5913 16.0018 16.5913C17.3447 16.5913 18.4373 15.4988 18.4373 14.1558C18.4373 13.5913 18.2436 13.0714 17.9201 12.658C18.2436 12.2444 18.4373 11.7245 18.4373 11.16Z" fill="#E4624C"/>
<path d="M18.4354 11.16C18.4354 9.81713 17.3429 8.72461 16 8.72461V10.5998C16.3089 10.5998 16.5603 10.8511 16.5603 11.16C16.5603 11.469 16.309 11.7203 16 11.7203V13.5955C16.3089 13.5955 16.5603 13.8468 16.5603 14.1558C16.5603 14.4647 16.309 14.7161 16 14.7161V16.5912C17.3429 16.5912 18.4354 15.4987 18.4354 14.1558C18.4354 13.5912 18.2418 13.0714 17.9183 12.6579C18.2418 12.2444 18.4354 11.7245 18.4354 11.16Z" fill="#CB3B28"/>
</g>
<defs>
<clipPath id="clip0_2501_98029">
<rect width="32" height="32" fill="white"/>
</clipPath>
</defs>
</svg>
