<svg width="32" height="32" viewBox="0 0 32 32" fill="none" xmlns="http://www.w3.org/2000/svg">
<g clip-path="url(#clip0_2501_97998)">
<path d="M22.3424 31.9991C22.2533 31.9991 22.1637 31.9864 22.0762 31.9605L15.9994 30.1604L9.92259 31.9605C9.63907 32.0445 9.33242 31.9897 9.09534 31.8128C8.85832 31.6358 8.71875 31.3573 8.71875 31.0615V18.3497C8.71875 17.8319 9.13853 17.4121 9.65632 17.4121H22.3425C22.8603 17.4121 23.2801 17.8319 23.2801 18.3497V31.0615C23.2801 31.3573 23.1405 31.6358 22.9035 31.8128C22.7396 31.9352 22.5424 31.9991 22.3424 31.9991Z" fill="#FC5866"/>
<path d="M22.3431 17.4121H16V30.1604L22.0767 31.9605C22.1642 31.9864 22.2539 31.9991 22.343 31.9991C22.5429 31.9991 22.7401 31.9352 22.904 31.8128C23.1411 31.6358 23.2806 31.3573 23.2806 31.0615V18.3497C23.2806 17.8319 22.8609 17.4121 22.3431 17.4121Z" fill="#F61845"/>
<path d="M15.0625 30.4381L16.0001 30.1604L16.9376 30.4381V17.4121H15.0625V30.4381Z" fill="#F8DBCE"/>
<path d="M16 17.4121V30.1604L16.9376 30.4381V17.4121H16Z" fill="#F9A59D"/>
<path d="M19.2873 25.1343C18.5647 25.1343 17.873 24.8325 17.2441 24.5581C16.7826 24.3567 16.3054 24.1485 15.987 24.1478C15.9864 24.1478 15.9857 24.1478 15.9851 24.1478C15.6583 24.1478 15.1756 24.3555 14.7088 24.5563C13.8731 24.9158 12.9259 25.3233 11.9511 25.006C10.9844 24.6913 10.46 23.8082 9.99728 23.0291C9.73457 22.5868 9.46299 22.1293 9.19096 21.9311C8.94313 21.7505 8.44378 21.6388 7.96093 21.5308C7.0608 21.3294 6.04053 21.1012 5.42242 20.2465C4.80481 19.3926 4.90588 18.3509 4.99507 17.4318C5.04301 16.9379 5.09258 16.4271 4.99814 16.1341C4.89463 15.813 4.54541 15.4119 4.20764 15.024C3.61297 14.341 2.93891 13.567 2.94141 12.5499C2.94391 11.5246 3.62472 10.7502 4.22539 10.0669C4.5621 9.68387 4.91025 9.28784 5.01151 8.9755C5.11027 8.67098 5.06127 8.15119 5.01395 7.64853C4.92794 6.73583 4.83056 5.70144 5.4398 4.86212C6.02922 4.05012 7.02129 3.82548 7.89655 3.62728C8.40521 3.51208 8.93126 3.39301 9.21453 3.18724C9.49805 2.98135 9.77488 2.51731 10.0427 2.06859C10.5029 1.29709 11.0247 0.42265 11.9785 0.114063C12.9659 -0.205337 13.9175 0.209821 14.7571 0.576099C15.2187 0.77749 15.6959 0.985694 16.0143 0.986506H16.0162C16.343 0.986506 16.8257 0.778803 17.2925 0.577974C18.1282 0.218446 19.0752 -0.189273 20.0502 0.128314C21.0169 0.442964 21.5414 1.32603 22.0041 2.10516C22.2668 2.5475 22.5384 3.00485 22.8104 3.20312C23.0582 3.38376 23.5575 3.49545 24.0404 3.60346C24.9406 3.80485 25.9608 4.03312 26.5789 4.88775C27.1966 5.74169 27.0955 6.7834 27.0064 7.70247C26.9583 8.19644 26.9088 8.70717 27.0033 9.00019C27.1067 9.32134 27.456 9.72244 27.7938 10.1103C28.3885 10.7933 29.0625 11.5673 29.06 12.5843C29.0575 13.6097 28.3767 14.3841 27.776 15.0674C27.4393 15.4504 27.0912 15.8464 26.9899 16.1588C26.8912 16.4633 26.9402 16.9831 26.9875 17.4857C27.0735 18.3984 27.1709 19.4328 26.5616 20.2721C25.9722 21.0841 24.9801 21.3088 24.1049 21.507C23.5962 21.6222 23.0702 21.7413 22.7869 21.947C22.5034 22.1528 22.2266 22.6169 21.9589 23.0656C21.4986 23.8372 20.9768 24.7116 20.023 25.0202C19.775 25.1004 19.5293 25.1343 19.2873 25.1343Z" fill="#6FB3E8"/>
<path d="M27.7752 15.067C28.3759 14.3837 29.0567 13.6093 29.0592 12.584C29.0616 11.5669 28.3877 10.7929 27.793 10.11C27.4553 9.72209 27.106 9.321 27.0025 8.99985C26.908 8.70683 26.9575 8.1961 27.0055 7.70212C27.0947 6.78305 27.1957 5.74134 26.5781 4.8874C25.96 4.03271 24.9398 3.80444 24.0396 3.60311C23.5567 3.49511 23.0574 3.38341 22.8096 3.20277C22.5376 3.00457 22.266 2.54716 22.0033 2.10481C21.5406 1.32569 21.0161 0.442618 20.0494 0.127968C19.0744 -0.189619 18.1274 0.2181 17.2917 0.577629C16.8249 0.778457 16.3422 0.98616 16.0154 0.98616C16.0148 0.98616 16.0141 0.98616 16.0135 0.98616C16.0091 0.98616 16.0044 0.985723 16 0.985598V24.148C16.3183 24.1543 16.7884 24.3592 17.2435 24.5578C17.8724 24.8322 18.5641 25.134 19.2867 25.134C19.5288 25.134 19.7744 25.1001 20.0223 25.0199C20.9761 24.7113 21.4978 23.8368 21.9582 23.0653C22.2259 22.6166 22.5027 22.1526 22.7862 21.9467C23.0694 21.741 23.5954 21.6219 24.1041 21.5067C24.9794 21.3085 25.9715 21.0838 26.5609 20.2719C27.1702 19.4325 27.0727 18.3981 26.9868 17.4854C26.9394 16.9828 26.8905 16.463 26.9892 16.1585C27.0904 15.8461 27.4385 15.45 27.7752 15.067Z" fill="#2676E9"/>
<path d="M16 19.7011C12.0734 19.7011 8.87891 16.501 8.87891 12.5674C8.87891 8.63378 12.0734 5.43359 16 5.43359C19.9265 5.43359 23.121 8.63378 23.121 12.5674C23.121 16.501 19.9265 19.7011 16 19.7011Z" fill="#E0E4F8"/>
<path d="M16 5.43359V19.7011C19.9266 19.7011 23.1211 16.501 23.1211 12.5674C23.1211 8.63378 19.9266 5.43359 16 5.43359Z" fill="#C4CAF3"/>
<path d="M16.0011 20.3209C11.7336 20.3209 8.26172 16.8428 8.26172 12.5677C8.26172 8.29254 11.7336 4.81445 16.0011 4.81445C20.2687 4.81445 23.7406 8.29254 23.7406 12.5677C23.7406 16.8428 20.2687 20.3209 16.0011 20.3209ZM16.0011 6.68954C12.7676 6.68954 10.1369 9.32649 10.1369 12.5676C10.1369 15.8088 12.7676 18.4457 16.0011 18.4457C19.2347 18.4457 21.8654 15.8088 21.8654 12.5676C21.8654 9.32649 19.2347 6.68954 16.0011 6.68954Z" fill="#C4CAF3"/>
<path d="M16 4.81445V6.6896C19.2336 6.6896 21.8643 9.32656 21.8643 12.5677C21.8643 15.8089 19.2336 18.4458 16 18.4458V20.3209C20.2675 20.3209 23.7394 16.8428 23.7394 12.5677C23.7394 8.29254 20.2675 4.81445 16 4.81445Z" fill="#A8B1EC"/>
<path d="M15.8395 16.3743C14.669 16.3743 14.5758 16.3431 14.452 16.3018C14.1528 16.2021 13.9194 15.9651 13.828 15.6677C13.6733 15.1651 13.9199 14.8423 14.2931 14.3536C14.5891 13.966 15.1402 13.2444 16.0641 11.9244C16.3609 11.5004 16.4823 11.2028 16.5314 11.0189L16.5441 10.9194C16.5209 10.6315 16.2793 10.4044 15.9856 10.4044C15.7184 10.4044 15.4871 10.594 15.4358 10.8551C15.336 11.3633 14.8432 11.6941 14.3351 11.5944C13.827 11.4946 13.4961 11.0018 13.5959 10.4937C13.8195 9.35549 14.8245 8.5293 15.9856 8.5293C17.3284 8.5293 18.421 9.62182 18.421 10.9647C18.421 11.0045 18.4185 11.0442 18.4135 11.0836L18.3845 11.31C18.3805 11.3412 18.375 11.3722 18.3678 11.4028C18.2529 11.8989 17.9946 12.4362 17.6003 12.9996C17.1682 13.6169 16.8154 14.1069 16.5306 14.4952C16.9149 14.4929 17.3262 14.4891 17.7198 14.4841C17.7238 14.4841 17.7278 14.4841 17.7318 14.4841C18.2441 14.4841 18.6626 14.8961 18.669 15.4099C18.6755 15.9277 18.2611 16.3527 17.7433 16.3592C16.9053 16.3697 16.2918 16.3743 15.8395 16.3743Z" fill="#C4CAF3"/>
<path d="M17.7331 14.4838C17.7291 14.4838 17.7251 14.4838 17.7211 14.4838C17.3275 14.4888 16.9163 14.4926 16.5319 14.4949C16.8168 14.1066 17.1696 13.6166 17.6017 12.9993C17.996 12.4359 18.2542 11.8986 18.3692 11.4025C18.3763 11.3719 18.3819 11.3409 18.3859 11.3097L18.4148 11.0832C18.4199 11.0438 18.4224 11.0041 18.4224 10.9644C18.4224 9.62594 17.3369 8.53648 16.0001 8.5293V10.4048C16.2877 10.4114 16.5226 10.6356 16.5454 10.919L16.5327 11.0186C16.4837 11.2025 16.3622 11.5001 16.0654 11.9241C16.0431 11.956 16.0219 11.9859 16 12.0171V16.3738C16.4343 16.3729 17.0009 16.3682 17.7446 16.3588C18.2624 16.3523 18.6768 15.9273 18.6704 15.4096C18.664 14.8958 18.2455 14.4838 17.7331 14.4838Z" fill="#A8B1EC"/>
</g>
<defs>
<clipPath id="clip0_2501_97998">
<rect width="32" height="32" fill="white"/>
</clipPath>
</defs>
</svg>
