<svg width="32" height="32" viewBox="0 0 32 32" fill="none" xmlns="http://www.w3.org/2000/svg">
<g clip-path="url(#clip0_2501_97977)">
<path d="M21.3653 31.9228L20.0497 31.0458L19.0374 29.0673L18.0251 29.696L16.2536 28.515C16.1003 28.4128 15.9006 28.4128 15.7474 28.515L13.9759 29.696L12.9636 29.0672L11.951 31.0459L10.5781 31.0921V21.2598H22.0746V31.5431C22.0746 31.9076 21.6684 32.125 21.3653 31.9228Z" fill="#F25E6C"/>
<path d="M11.9505 21.2598H9.92578V31.5431C9.92578 31.9076 10.3319 32.125 10.6352 31.9228L11.9505 31.0459V21.2598Z" fill="#E8465E"/>
<path d="M11.9492 31.0456V21.2598H13.9738V29.6957L11.9492 31.0456Z" fill="#F2FBFF"/>
<path d="M20.048 31.0456V21.2598H18.0234V29.6957L20.048 31.0456Z" fill="#F2FBFF"/>
<path d="M16.978 0.244964L18.4125 1.07184C18.7278 1.2539 19.0854 1.34971 19.4495 1.34971H21.0374C21.7784 1.34971 22.4631 1.74503 22.8336 2.38671L23.6275 3.7619C23.8096 4.07721 24.0714 4.33903 24.3867 4.52103L25.7618 5.31496C26.4035 5.68546 26.7988 6.37015 26.7988 7.11115V8.69909C26.7988 9.06315 26.8947 9.42084 27.0767 9.73609L27.8707 11.1113C28.2412 11.753 28.2412 12.5436 27.8707 13.1853L27.0767 14.5605C26.8947 14.8758 26.7988 15.2334 26.7988 15.5975V17.1854C26.7988 17.9264 26.4035 18.6111 25.7618 18.9816L24.3867 19.7755C24.0713 19.9576 23.8095 20.2194 23.6275 20.5346L22.8336 21.9098C22.4631 22.5515 21.7784 22.9468 21.0374 22.9468H19.4495C19.0854 22.9468 18.7277 23.0427 18.4125 23.2247L16.978 24.0516C16.3363 24.4221 14.2399 23.2247 14.2399 23.2247C13.9246 23.0427 12.9152 22.9468 12.5511 22.9468C12.5511 22.9468 10.1893 22.5515 9.81884 21.9098L9.02491 20.5346C8.84284 20.2193 8.58103 19.9575 8.26578 19.7755L6.89059 18.9816C6.24891 18.6111 5.85359 17.9264 5.85359 17.1854V15.5975C5.85359 15.2334 5.75778 14.8757 5.57572 14.5605L4.78178 13.1853C4.41128 12.5436 4.41128 11.753 4.78178 11.1113L5.57572 9.73609C5.75778 9.42078 5.85359 9.06315 5.85359 8.69909V7.11115C5.85359 6.37015 6.24891 5.68546 6.89059 5.31496L8.26578 4.52103C8.58109 4.33896 8.84291 4.07715 9.02491 3.7619L9.81884 2.38671C10.1893 1.74503 10.4177 1.4149 11.1587 1.4149L12.5511 1.34971C12.9152 1.34971 13.9247 1.2539 14.2399 1.07184C14.2399 1.07184 16.3363 -0.125536 16.978 0.244964Z" fill="#FED44C"/>
<path d="M16.9183 24.0187L15.5431 23.2248C15.2278 23.0428 14.8702 22.9469 14.5061 22.9469H12.9182C12.1772 22.9469 11.4925 22.5516 11.122 21.9099L10.3281 20.5347C10.146 20.2194 9.88419 19.9576 9.56894 19.7756L8.19375 18.9817C7.55206 18.6112 7.15675 17.9265 7.15675 17.1855V15.5976C7.15675 15.2335 7.06094 14.8758 6.87888 14.5606L6.08488 13.1853C5.71438 12.5436 5.71438 11.753 6.08488 11.1112L6.87881 9.73606C7.06081 9.42074 7.15669 9.06312 7.15669 8.69906V7.11112C7.15669 6.37012 7.552 5.68543 8.19369 5.31493L9.56888 4.52099C9.88419 4.33899 10.146 4.07712 10.328 3.76187L11.1219 2.38668C11.4924 1.74499 12.1771 1.34968 12.9181 1.34968H14.5061C14.8702 1.34968 15.2279 1.25387 15.5431 1.07181L16.9183 0.277869C16.9379 0.266556 16.9577 0.255556 16.9776 0.244931C16.3469 -0.0922565 15.5849 -0.081319 14.9628 0.277869L13.5876 1.07181C13.2723 1.25381 12.9147 1.34968 12.5506 1.34968H10.9627C10.2217 1.34968 9.537 1.74499 9.1665 2.38668L8.37263 3.76187C8.19063 4.07718 7.92875 4.33899 7.6135 4.52099L6.23825 5.31499C5.59656 5.68549 5.20125 6.37018 5.20125 7.11118V8.69912C5.20125 9.06318 5.10544 9.42087 4.92338 9.73612L4.12944 11.1113C3.75894 11.753 3.75894 12.5436 4.12944 13.1854L4.92338 14.5606C5.10538 14.8759 5.20125 15.2335 5.20125 15.5976V17.1855C5.20125 17.9265 5.59656 18.6112 6.23825 18.9817L7.61344 19.7756C7.92875 19.9576 8.19056 20.2195 8.37256 20.5347L9.1665 21.9099C9.537 22.5516 10.2217 22.9469 10.9627 22.9469H12.5506C12.9147 22.9469 13.2724 23.0427 13.5876 23.2248L14.9628 24.0187C15.5849 24.3779 16.3469 24.3889 16.9776 24.0517C16.9578 24.0411 16.9379 24.0301 16.9183 24.0187Z" fill="#F2B84C"/>
<path d="M15.998 21.2596C21.03 21.2596 25.1092 17.1804 25.1092 12.1484C25.1092 7.11635 21.03 3.03711 15.998 3.03711C10.966 3.03711 6.88672 7.11635 6.88672 12.1484C6.88672 17.1804 10.966 21.2596 15.998 21.2596Z" fill="#E68415"/>
<path d="M23.0876 12.1475C23.0876 15.7295 20.4299 18.6909 16.9788 19.1671C16.6592 19.2112 16.332 19.1919 16.0011 19.1688C12.9467 18.9563 9.56641 16.0612 9.56641 12.1475C9.56641 8.23373 12.655 5.35486 16.0011 5.12617C16.332 5.10354 16.6592 5.08379 16.9788 5.12786C20.4299 5.60411 23.0876 8.56542 23.0876 12.1475Z" fill="#FED44C"/>
<path d="M10.8696 12.1491C10.8696 8.567 13.5273 5.60575 16.9783 5.12944C16.6587 5.08531 16.3323 5.0625 16.0006 5.0625C12.0868 5.0625 8.91406 8.23525 8.91406 12.149C8.91406 16.0627 12.0869 19.2356 16.0006 19.2356C16.3324 19.2356 16.6588 19.2127 16.9784 19.1686C13.5273 18.6924 10.8696 15.7311 10.8696 12.1491Z" fill="#F2B84C"/>
<path d="M16.0575 16.2251C15.4942 16.2251 15.0374 15.7684 15.0374 15.205V10.1106H14.7506C14.1872 10.1106 13.7305 9.65381 13.7305 9.09044C13.7305 8.52706 14.1872 8.07031 14.7506 8.07031H16.0575C16.6209 8.07031 17.0777 8.52706 17.0777 9.09044V15.205C17.0777 15.7684 16.6209 16.2251 16.0575 16.2251Z" fill="#E68415"/>
</g>
<defs>
<clipPath id="clip0_2501_97977">
<rect width="32" height="32" fill="white"/>
</clipPath>
</defs>
</svg>
