<svg width="200" height="201" viewBox="0 0 200 201" fill="none" xmlns="http://www.w3.org/2000/svg">
<g clip-path="url(#clip0_2501_123626)">
<path d="M200 0.5H0V200.5H200V0.5Z" fill="white"/>
<path d="M18.5345 13H12.5V19.0345H18.5345V13Z" fill="black"/>
<path d="M24.569 13H18.5345V19.0345H24.569V13Z" fill="black"/>
<path d="M30.6034 13H24.569V19.0345H30.6034V13Z" fill="black"/>
<path d="M36.6379 13H30.6034V19.0345H36.6379V13Z" fill="black"/>
<path d="M42.6724 13H36.6379V19.0345H42.6724V13Z" fill="black"/>
<path d="M48.7069 13H42.6724V19.0345H48.7069V13Z" fill="black"/>
<path d="M54.7414 13H48.7069V19.0345H54.7414V13Z" fill="black"/>
<path d="M66.8103 13H60.7759V19.0345H66.8103V13Z" fill="black"/>
<path d="M78.8793 13H72.8448V19.0345H78.8793V13Z" fill="black"/>
<path d="M109.052 13H103.017V19.0345H109.052V13Z" fill="black"/>
<path d="M115.086 13H109.052V19.0345H115.086V13Z" fill="black"/>
<path d="M127.155 13H121.121V19.0345H127.155V13Z" fill="black"/>
<path d="M139.224 13H133.19V19.0345H139.224V13Z" fill="black"/>
<path d="M151.293 13H145.259V19.0345H151.293V13Z" fill="black"/>
<path d="M157.328 13H151.293V19.0345H157.328V13Z" fill="black"/>
<path d="M163.362 13H157.328V19.0345H163.362V13Z" fill="black"/>
<path d="M169.397 13H163.362V19.0345H169.397V13Z" fill="black"/>
<path d="M175.431 13H169.397V19.0345H175.431V13Z" fill="black"/>
<path d="M181.466 13H175.431V19.0345H181.466V13Z" fill="black"/>
<path d="M187.5 13H181.466V19.0345H187.5V13Z" fill="black"/>
<path d="M18.5345 19.0345H12.5V25.069H18.5345V19.0345Z" fill="black"/>
<path d="M54.7414 19.0345H48.7069V25.069H54.7414V19.0345Z" fill="black"/>
<path d="M72.8448 19.0345H66.8103V25.069H72.8448V19.0345Z" fill="black"/>
<path d="M78.8793 19.0345H72.8448V25.069H78.8793V19.0345Z" fill="black"/>
<path d="M84.9138 19.0345H78.8793V25.069H84.9138V19.0345Z" fill="black"/>
<path d="M90.9483 19.0345H84.9138V25.069H90.9483V19.0345Z" fill="black"/>
<path d="M103.017 19.0345H96.9828V25.069H103.017V19.0345Z" fill="black"/>
<path d="M109.052 19.0345H103.017V25.069H109.052V19.0345Z" fill="black"/>
<path d="M151.293 19.0345H145.259V25.069H151.293V19.0345Z" fill="black"/>
<path d="M187.5 19.0345H181.466V25.069H187.5V19.0345Z" fill="black"/>
<path d="M18.5345 25.069H12.5V31.1034H18.5345V25.069Z" fill="black"/>
<path d="M30.6034 25.069H24.569V31.1034H30.6034V25.069Z" fill="black"/>
<path d="M36.6379 25.069H30.6034V31.1034H36.6379V25.069Z" fill="black"/>
<path d="M42.6724 25.069H36.6379V31.1034H42.6724V25.069Z" fill="black"/>
<path d="M54.7414 25.069H48.7069V31.1034H54.7414V25.069Z" fill="black"/>
<path d="M78.8793 25.069H72.8448V31.1034H78.8793V25.069Z" fill="black"/>
<path d="M84.9138 25.069H78.8793V31.1034H84.9138V25.069Z" fill="black"/>
<path d="M90.9483 25.069H84.9138V31.1034H90.9483V25.069Z" fill="black"/>
<path d="M96.9828 25.069H90.9483V31.1034H96.9828V25.069Z" fill="black"/>
<path d="M109.052 25.069H103.017V31.1034H109.052V25.069Z" fill="black"/>
<path d="M115.086 25.069H109.052V31.1034H115.086V25.069Z" fill="black"/>
<path d="M133.19 25.069H127.155V31.1034H133.19V25.069Z" fill="black"/>
<path d="M139.224 25.069H133.19V31.1034H139.224V25.069Z" fill="black"/>
<path d="M151.293 25.069H145.259V31.1034H151.293V25.069Z" fill="black"/>
<path d="M163.362 25.069H157.328V31.1034H163.362V25.069Z" fill="black"/>
<path d="M169.397 25.069H163.362V31.1034H169.397V25.069Z" fill="black"/>
<path d="M175.431 25.069H169.397V31.1034H175.431V25.069Z" fill="black"/>
<path d="M187.5 25.069H181.466V31.1034H187.5V25.069Z" fill="black"/>
<path d="M18.5345 31.1034H12.5V37.1379H18.5345V31.1034Z" fill="black"/>
<path d="M30.6034 31.1034H24.569V37.1379H30.6034V31.1034Z" fill="black"/>
<path d="M36.6379 31.1034H30.6034V37.1379H36.6379V31.1034Z" fill="black"/>
<path d="M42.6724 31.1034H36.6379V37.1379H42.6724V31.1034Z" fill="black"/>
<path d="M54.7414 31.1034H48.7069V37.1379H54.7414V31.1034Z" fill="black"/>
<path d="M66.8103 31.1034H60.7759V37.1379H66.8103V31.1034Z" fill="black"/>
<path d="M72.8448 31.1034H66.8103V37.1379H72.8448V31.1034Z" fill="black"/>
<path d="M78.8793 31.1034H72.8448V37.1379H78.8793V31.1034Z" fill="black"/>
<path d="M84.9138 31.1034H78.8793V37.1379H84.9138V31.1034Z" fill="black"/>
<path d="M96.9828 31.1034H90.9483V37.1379H96.9828V31.1034Z" fill="black"/>
<path d="M115.086 31.1034H109.052V37.1379H115.086V31.1034Z" fill="black"/>
<path d="M133.19 31.1034H127.155V37.1379H133.19V31.1034Z" fill="black"/>
<path d="M151.293 31.1034H145.259V37.1379H151.293V31.1034Z" fill="black"/>
<path d="M163.362 31.1034H157.328V37.1379H163.362V31.1034Z" fill="black"/>
<path d="M169.397 31.1034H163.362V37.1379H169.397V31.1034Z" fill="black"/>
<path d="M175.431 31.1034H169.397V37.1379H175.431V31.1034Z" fill="black"/>
<path d="M187.5 31.1034H181.466V37.1379H187.5V31.1034Z" fill="black"/>
<path d="M18.5345 37.1379H12.5V43.1724H18.5345V37.1379Z" fill="black"/>
<path d="M30.6034 37.1379H24.569V43.1724H30.6034V37.1379Z" fill="black"/>
<path d="M36.6379 37.1379H30.6034V43.1724H36.6379V37.1379Z" fill="black"/>
<path d="M42.6724 37.1379H36.6379V43.1724H42.6724V37.1379Z" fill="black"/>
<path d="M54.7414 37.1379H48.7069V43.1724H54.7414V37.1379Z" fill="black"/>
<path d="M96.9828 37.1379H90.9483V43.1724H96.9828V37.1379Z" fill="black"/>
<path d="M103.017 37.1379H96.9828V43.1724H103.017V37.1379Z" fill="black"/>
<path d="M109.052 37.1379H103.017V43.1724H109.052V37.1379Z" fill="black"/>
<path d="M121.121 37.1379H115.086V43.1724H121.121V37.1379Z" fill="black"/>
<path d="M151.293 37.1379H145.259V43.1724H151.293V37.1379Z" fill="black"/>
<path d="M163.362 37.1379H157.328V43.1724H163.362V37.1379Z" fill="black"/>
<path d="M169.397 37.1379H163.362V43.1724H169.397V37.1379Z" fill="black"/>
<path d="M175.431 37.1379H169.397V43.1724H175.431V37.1379Z" fill="black"/>
<path d="M187.5 37.1379H181.466V43.1724H187.5V37.1379Z" fill="black"/>
<path d="M18.5345 43.1724H12.5V49.2069H18.5345V43.1724Z" fill="black"/>
<path d="M54.7414 43.1724H48.7069V49.2069H54.7414V43.1724Z" fill="black"/>
<path d="M66.8103 43.1724H60.7759V49.2069H66.8103V43.1724Z" fill="black"/>
<path d="M72.8448 43.1724H66.8103V49.2069H72.8448V43.1724Z" fill="black"/>
<path d="M78.8793 43.1724H72.8448V49.2069H78.8793V43.1724Z" fill="black"/>
<path d="M84.9138 43.1724H78.8793V49.2069H84.9138V43.1724Z" fill="black"/>
<path d="M90.9483 43.1724H84.9138V49.2069H90.9483V43.1724Z" fill="black"/>
<path d="M96.9828 43.1724H90.9483V49.2069H96.9828V43.1724Z" fill="black"/>
<path d="M109.052 43.1724H103.017V49.2069H109.052V43.1724Z" fill="black"/>
<path d="M115.086 43.1724H109.052V49.2069H115.086V43.1724Z" fill="black"/>
<path d="M151.293 43.1724H145.259V49.2069H151.293V43.1724Z" fill="black"/>
<path d="M187.5 43.1724H181.466V49.2069H187.5V43.1724Z" fill="black"/>
<path d="M18.5345 49.2069H12.5V55.2414H18.5345V49.2069Z" fill="black"/>
<path d="M24.569 49.2069H18.5345V55.2414H24.569V49.2069Z" fill="black"/>
<path d="M30.6034 49.2069H24.569V55.2414H30.6034V49.2069Z" fill="black"/>
<path d="M36.6379 49.2069H30.6034V55.2414H36.6379V49.2069Z" fill="black"/>
<path d="M42.6724 49.2069H36.6379V55.2414H42.6724V49.2069Z" fill="black"/>
<path d="M48.7069 49.2069H42.6724V55.2414H48.7069V49.2069Z" fill="black"/>
<path d="M54.7414 49.2069H48.7069V55.2414H54.7414V49.2069Z" fill="black"/>
<path d="M66.8103 49.2069H60.7759V55.2414H66.8103V49.2069Z" fill="black"/>
<path d="M78.8793 49.2069H72.8448V55.2414H78.8793V49.2069Z" fill="black"/>
<path d="M90.9483 49.2069H84.9138V55.2414H90.9483V49.2069Z" fill="black"/>
<path d="M103.017 49.2069H96.9828V55.2414H103.017V49.2069Z" fill="black"/>
<path d="M115.086 49.2069H109.052V55.2414H115.086V49.2069Z" fill="black"/>
<path d="M127.155 49.2069H121.121V55.2414H127.155V49.2069Z" fill="black"/>
<path d="M139.224 49.2069H133.19V55.2414H139.224V49.2069Z" fill="black"/>
<path d="M151.293 49.2069H145.259V55.2414H151.293V49.2069Z" fill="black"/>
<path d="M157.328 49.2069H151.293V55.2414H157.328V49.2069Z" fill="black"/>
<path d="M163.362 49.2069H157.328V55.2414H163.362V49.2069Z" fill="black"/>
<path d="M169.397 49.2069H163.362V55.2414H169.397V49.2069Z" fill="black"/>
<path d="M175.431 49.2069H169.397V55.2414H175.431V49.2069Z" fill="black"/>
<path d="M181.466 49.2069H175.431V55.2414H181.466V49.2069Z" fill="black"/>
<path d="M187.5 49.2069H181.466V55.2414H187.5V49.2069Z" fill="black"/>
<path d="M72.8448 55.2414H66.8103V61.2759H72.8448V55.2414Z" fill="black"/>
<path d="M103.017 55.2414H96.9828V61.2759H103.017V55.2414Z" fill="black"/>
<path d="M121.121 55.2414H115.086V61.2759H121.121V55.2414Z" fill="black"/>
<path d="M127.155 55.2414H121.121V61.2759H127.155V55.2414Z" fill="black"/>
<path d="M133.19 55.2414H127.155V61.2759H133.19V55.2414Z" fill="black"/>
<path d="M139.224 55.2414H133.19V61.2759H139.224V55.2414Z" fill="black"/>
<path d="M48.7069 61.2759H42.6724V67.3103H48.7069V61.2759Z" fill="black"/>
<path d="M54.7414 61.2759H48.7069V67.3103H54.7414V61.2759Z" fill="black"/>
<path d="M66.8103 61.2759H60.7759V67.3103H66.8103V61.2759Z" fill="black"/>
<path d="M72.8448 61.2759H66.8103V67.3103H72.8448V61.2759Z" fill="black"/>
<path d="M84.9138 61.2759H78.8793V67.3103H84.9138V61.2759Z" fill="black"/>
<path d="M90.9483 61.2759H84.9138V67.3103H90.9483V61.2759Z" fill="black"/>
<path d="M103.017 61.2759H96.9828V67.3103H103.017V61.2759Z" fill="black"/>
<path d="M109.052 61.2759H103.017V67.3103H109.052V61.2759Z" fill="black"/>
<path d="M115.086 61.2759H109.052V67.3103H115.086V61.2759Z" fill="black"/>
<path d="M121.121 61.2759H115.086V67.3103H121.121V61.2759Z" fill="black"/>
<path d="M145.259 61.2759H139.224V67.3103H145.259V61.2759Z" fill="black"/>
<path d="M157.328 61.2759H151.293V67.3103H157.328V61.2759Z" fill="black"/>
<path d="M169.397 61.2759H163.362V67.3103H169.397V61.2759Z" fill="black"/>
<path d="M187.5 61.2759H181.466V67.3103H187.5V61.2759Z" fill="black"/>
<path d="M18.5345 67.3103H12.5V73.3448H18.5345V67.3103Z" fill="black"/>
<path d="M36.6379 67.3103H30.6034V73.3448H36.6379V67.3103Z" fill="black"/>
<path d="M60.7759 67.3103H54.7414V73.3448H60.7759V67.3103Z" fill="black"/>
<path d="M66.8103 67.3103H60.7759V73.3448H66.8103V67.3103Z" fill="black"/>
<path d="M72.8448 67.3103H66.8103V73.3448H72.8448V67.3103Z" fill="black"/>
<path d="M109.052 67.3103H103.017V73.3448H109.052V67.3103Z" fill="black"/>
<path d="M121.121 67.3103H115.086V73.3448H121.121V67.3103Z" fill="black"/>
<path d="M133.19 67.3103H127.155V73.3448H133.19V67.3103Z" fill="black"/>
<path d="M145.259 67.3103H139.224V73.3448H145.259V67.3103Z" fill="black"/>
<path d="M18.5345 73.3448H12.5V79.3793H18.5345V73.3448Z" fill="black"/>
<path d="M36.6379 73.3448H30.6034V79.3793H36.6379V73.3448Z" fill="black"/>
<path d="M42.6724 73.3448H36.6379V79.3793H42.6724V73.3448Z" fill="black"/>
<path d="M54.7414 73.3448H48.7069V79.3793H54.7414V73.3448Z" fill="black"/>
<path d="M60.7759 73.3448H54.7414V79.3793H60.7759V73.3448Z" fill="black"/>
<path d="M66.8103 73.3448H60.7759V79.3793H66.8103V73.3448Z" fill="black"/>
<path d="M78.8793 73.3448H72.8448V79.3793H78.8793V73.3448Z" fill="black"/>
<path d="M90.9483 73.3448H84.9138V79.3793H90.9483V73.3448Z" fill="black"/>
<path d="M109.052 73.3448H103.017V79.3793H109.052V73.3448Z" fill="black"/>
<path d="M127.155 73.3448H121.121V79.3793H127.155V73.3448Z" fill="black"/>
<path d="M139.224 73.3448H133.19V79.3793H139.224V73.3448Z" fill="black"/>
<path d="M151.293 73.3448H145.259V79.3793H151.293V73.3448Z" fill="black"/>
<path d="M163.362 73.3448H157.328V79.3793H163.362V73.3448Z" fill="black"/>
<path d="M175.431 73.3448H169.397V79.3793H175.431V73.3448Z" fill="black"/>
<path d="M187.5 73.3448H181.466V79.3793H187.5V73.3448Z" fill="black"/>
<path d="M48.7069 79.3793H42.6724V85.4138H48.7069V79.3793Z" fill="black"/>
<path d="M78.8793 79.3793H72.8448V85.4138H78.8793V79.3793Z" fill="black"/>
<path d="M96.9828 79.3793H90.9483V85.4138H96.9828V79.3793Z" fill="black"/>
<path d="M103.017 79.3793H96.9828V85.4138H103.017V79.3793Z" fill="black"/>
<path d="M115.086 79.3793H109.052V85.4138H115.086V79.3793Z" fill="black"/>
<path d="M127.155 79.3793H121.121V85.4138H127.155V79.3793Z" fill="black"/>
<path d="M133.19 79.3793H127.155V85.4138H133.19V79.3793Z" fill="black"/>
<path d="M139.224 79.3793H133.19V85.4138H139.224V79.3793Z" fill="black"/>
<path d="M145.259 79.3793H139.224V85.4138H145.259V79.3793Z" fill="black"/>
<path d="M157.328 79.3793H151.293V85.4138H157.328V79.3793Z" fill="black"/>
<path d="M163.362 79.3793H157.328V85.4138H163.362V79.3793Z" fill="black"/>
<path d="M30.6034 85.4138H24.569V91.4483H30.6034V85.4138Z" fill="black"/>
<path d="M54.7414 85.4138H48.7069V91.4483H54.7414V85.4138Z" fill="black"/>
<path d="M66.8103 85.4138H60.7759V91.4483H66.8103V85.4138Z" fill="black"/>
<path d="M72.8448 85.4138H66.8103V91.4483H72.8448V85.4138Z" fill="black"/>
<path d="M78.8793 85.4138H72.8448V91.4483H78.8793V85.4138Z" fill="black"/>
<path d="M84.9138 85.4138H78.8793V91.4483H84.9138V85.4138Z" fill="black"/>
<path d="M90.9483 85.4138H84.9138V91.4483H90.9483V85.4138Z" fill="black"/>
<path d="M103.017 85.4138H96.9828V91.4483H103.017V85.4138Z" fill="black"/>
<path d="M109.052 85.4138H103.017V91.4483H109.052V85.4138Z" fill="black"/>
<path d="M127.155 85.4138H121.121V91.4483H127.155V85.4138Z" fill="black"/>
<path d="M133.19 85.4138H127.155V91.4483H133.19V85.4138Z" fill="black"/>
<path d="M151.293 85.4138H145.259V91.4483H151.293V85.4138Z" fill="black"/>
<path d="M163.362 85.4138H157.328V91.4483H163.362V85.4138Z" fill="black"/>
<path d="M175.431 85.4138H169.397V91.4483H175.431V85.4138Z" fill="black"/>
<path d="M187.5 85.4138H181.466V91.4483H187.5V85.4138Z" fill="black"/>
<path d="M18.5345 91.4483H12.5V97.4828H18.5345V91.4483Z" fill="black"/>
<path d="M24.569 91.4483H18.5345V97.4828H24.569V91.4483Z" fill="black"/>
<path d="M30.6034 91.4483H24.569V97.4828H30.6034V91.4483Z" fill="black"/>
<path d="M36.6379 91.4483H30.6034V97.4828H36.6379V91.4483Z" fill="black"/>
<path d="M42.6724 91.4483H36.6379V97.4828H42.6724V91.4483Z" fill="black"/>
<path d="M48.7069 91.4483H42.6724V97.4828H48.7069V91.4483Z" fill="black"/>
<path d="M109.052 91.4483H103.017V97.4828H109.052V91.4483Z" fill="black"/>
<path d="M115.086 91.4483H109.052V97.4828H115.086V91.4483Z" fill="black"/>
<path d="M127.155 91.4483H121.121V97.4828H127.155V91.4483Z" fill="black"/>
<path d="M133.19 91.4483H127.155V97.4828H133.19V91.4483Z" fill="black"/>
<path d="M145.259 91.4483H139.224V97.4828H145.259V91.4483Z" fill="black"/>
<path d="M151.293 91.4483H145.259V97.4828H151.293V91.4483Z" fill="black"/>
<path d="M157.328 91.4483H151.293V97.4828H157.328V91.4483Z" fill="black"/>
<path d="M181.466 91.4483H175.431V97.4828H181.466V91.4483Z" fill="black"/>
<path d="M187.5 91.4483H181.466V97.4828H187.5V91.4483Z" fill="black"/>
<path d="M24.569 97.4828H18.5345V103.517H24.569V97.4828Z" fill="black"/>
<path d="M36.6379 97.4828H30.6034V103.517H36.6379V97.4828Z" fill="black"/>
<path d="M42.6724 97.4828H36.6379V103.517H42.6724V97.4828Z" fill="black"/>
<path d="M48.7069 97.4828H42.6724V103.517H48.7069V97.4828Z" fill="black"/>
<path d="M54.7414 97.4828H48.7069V103.517H54.7414V97.4828Z" fill="black"/>
<path d="M60.7759 97.4828H54.7414V103.517H60.7759V97.4828Z" fill="black"/>
<path d="M72.8448 97.4828H66.8103V103.517H72.8448V97.4828Z" fill="black"/>
<path d="M84.9138 97.4828H78.8793V103.517H84.9138V97.4828Z" fill="black"/>
<path d="M109.052 97.4828H103.017V103.517H109.052V97.4828Z" fill="black"/>
<path d="M115.086 97.4828H109.052V103.517H115.086V97.4828Z" fill="black"/>
<path d="M139.224 97.4828H133.19V103.517H139.224V97.4828Z" fill="black"/>
<path d="M151.293 97.4828H145.259V103.517H151.293V97.4828Z" fill="black"/>
<path d="M163.362 97.4828H157.328V103.517H163.362V97.4828Z" fill="black"/>
<path d="M169.397 97.4828H163.362V103.517H169.397V97.4828Z" fill="black"/>
<path d="M187.5 97.4828H181.466V103.517H187.5V97.4828Z" fill="black"/>
<path d="M24.569 103.517H18.5345V109.552H24.569V103.517Z" fill="black"/>
<path d="M36.6379 103.517H30.6034V109.552H36.6379V103.517Z" fill="black"/>
<path d="M66.8103 103.517H60.7759V109.552H66.8103V103.517Z" fill="black"/>
<path d="M72.8448 103.517H66.8103V109.552H72.8448V103.517Z" fill="black"/>
<path d="M84.9138 103.517H78.8793V109.552H84.9138V103.517Z" fill="black"/>
<path d="M96.9828 103.517H90.9483V109.552H96.9828V103.517Z" fill="black"/>
<path d="M103.017 103.517H96.9828V109.552H103.017V103.517Z" fill="black"/>
<path d="M115.086 103.517H109.052V109.552H115.086V103.517Z" fill="black"/>
<path d="M121.121 103.517H115.086V109.552H121.121V103.517Z" fill="black"/>
<path d="M133.19 103.517H127.155V109.552H133.19V103.517Z" fill="black"/>
<path d="M145.259 103.517H139.224V109.552H145.259V103.517Z" fill="black"/>
<path d="M151.293 103.517H145.259V109.552H151.293V103.517Z" fill="black"/>
<path d="M163.362 103.517H157.328V109.552H163.362V103.517Z" fill="black"/>
<path d="M169.397 103.517H163.362V109.552H169.397V103.517Z" fill="black"/>
<path d="M181.466 103.517H175.431V109.552H181.466V103.517Z" fill="black"/>
<path d="M18.5345 109.552H12.5V115.586H18.5345V109.552Z" fill="black"/>
<path d="M30.6034 109.552H24.569V115.586H30.6034V109.552Z" fill="black"/>
<path d="M42.6724 109.552H36.6379V115.586H42.6724V109.552Z" fill="black"/>
<path d="M54.7414 109.552H48.7069V115.586H54.7414V109.552Z" fill="black"/>
<path d="M78.8793 109.552H72.8448V115.586H78.8793V109.552Z" fill="black"/>
<path d="M90.9483 109.552H84.9138V115.586H90.9483V109.552Z" fill="black"/>
<path d="M103.017 109.552H96.9828V115.586H103.017V109.552Z" fill="black"/>
<path d="M109.052 109.552H103.017V115.586H109.052V109.552Z" fill="black"/>
<path d="M115.086 109.552H109.052V115.586H115.086V109.552Z" fill="black"/>
<path d="M133.19 109.552H127.155V115.586H133.19V109.552Z" fill="black"/>
<path d="M139.224 109.552H133.19V115.586H139.224V109.552Z" fill="black"/>
<path d="M145.259 109.552H139.224V115.586H145.259V109.552Z" fill="black"/>
<path d="M157.328 109.552H151.293V115.586H157.328V109.552Z" fill="black"/>
<path d="M169.397 109.552H163.362V115.586H169.397V109.552Z" fill="black"/>
<path d="M24.569 115.586H18.5345V121.621H24.569V115.586Z" fill="black"/>
<path d="M30.6034 115.586H24.569V121.621H30.6034V115.586Z" fill="black"/>
<path d="M60.7759 115.586H54.7414V121.621H60.7759V115.586Z" fill="black"/>
<path d="M78.8793 115.586H72.8448V121.621H78.8793V115.586Z" fill="black"/>
<path d="M90.9483 115.586H84.9138V121.621H90.9483V115.586Z" fill="black"/>
<path d="M96.9828 115.586H90.9483V121.621H96.9828V115.586Z" fill="black"/>
<path d="M109.052 115.586H103.017V121.621H109.052V115.586Z" fill="black"/>
<path d="M115.086 115.586H109.052V121.621H115.086V115.586Z" fill="black"/>
<path d="M127.155 115.586H121.121V121.621H127.155V115.586Z" fill="black"/>
<path d="M133.19 115.586H127.155V121.621H133.19V115.586Z" fill="black"/>
<path d="M151.293 115.586H145.259V121.621H151.293V115.586Z" fill="black"/>
<path d="M18.5345 121.621H12.5V127.655H18.5345V121.621Z" fill="black"/>
<path d="M24.569 121.621H18.5345V127.655H24.569V121.621Z" fill="black"/>
<path d="M30.6034 121.621H24.569V127.655H30.6034V121.621Z" fill="black"/>
<path d="M36.6379 121.621H30.6034V127.655H36.6379V121.621Z" fill="black"/>
<path d="M42.6724 121.621H36.6379V127.655H42.6724V121.621Z" fill="black"/>
<path d="M54.7414 121.621H48.7069V127.655H54.7414V121.621Z" fill="black"/>
<path d="M60.7759 121.621H54.7414V127.655H60.7759V121.621Z" fill="black"/>
<path d="M66.8103 121.621H60.7759V127.655H66.8103V121.621Z" fill="black"/>
<path d="M96.9828 121.621H90.9483V127.655H96.9828V121.621Z" fill="black"/>
<path d="M109.052 121.621H103.017V127.655H109.052V121.621Z" fill="black"/>
<path d="M121.121 121.621H115.086V127.655H121.121V121.621Z" fill="black"/>
<path d="M127.155 121.621H121.121V127.655H127.155V121.621Z" fill="black"/>
<path d="M133.19 121.621H127.155V127.655H133.19V121.621Z" fill="black"/>
<path d="M139.224 121.621H133.19V127.655H139.224V121.621Z" fill="black"/>
<path d="M157.328 121.621H151.293V127.655H157.328V121.621Z" fill="black"/>
<path d="M163.362 121.621H157.328V127.655H163.362V121.621Z" fill="black"/>
<path d="M18.5345 127.655H12.5V133.69H18.5345V127.655Z" fill="black"/>
<path d="M48.7069 127.655H42.6724V133.69H48.7069V127.655Z" fill="black"/>
<path d="M66.8103 127.655H60.7759V133.69H66.8103V127.655Z" fill="black"/>
<path d="M78.8793 127.655H72.8448V133.69H78.8793V127.655Z" fill="black"/>
<path d="M84.9138 127.655H78.8793V133.69H84.9138V127.655Z" fill="black"/>
<path d="M96.9828 127.655H90.9483V133.69H96.9828V127.655Z" fill="black"/>
<path d="M133.19 127.655H127.155V133.69H133.19V127.655Z" fill="black"/>
<path d="M169.397 127.655H163.362V133.69H169.397V127.655Z" fill="black"/>
<path d="M175.431 127.655H169.397V133.69H175.431V127.655Z" fill="black"/>
<path d="M181.466 127.655H175.431V133.69H181.466V127.655Z" fill="black"/>
<path d="M30.6034 133.69H24.569V139.724H30.6034V133.69Z" fill="black"/>
<path d="M54.7414 133.69H48.7069V139.724H54.7414V133.69Z" fill="black"/>
<path d="M72.8448 133.69H66.8103V139.724H72.8448V133.69Z" fill="black"/>
<path d="M78.8793 133.69H72.8448V139.724H78.8793V133.69Z" fill="black"/>
<path d="M96.9828 133.69H90.9483V139.724H96.9828V133.69Z" fill="black"/>
<path d="M109.052 133.69H103.017V139.724H109.052V133.69Z" fill="black"/>
<path d="M115.086 133.69H109.052V139.724H115.086V133.69Z" fill="black"/>
<path d="M121.121 133.69H115.086V139.724H121.121V133.69Z" fill="black"/>
<path d="M139.224 133.69H133.19V139.724H139.224V133.69Z" fill="black"/>
<path d="M145.259 133.69H139.224V139.724H145.259V133.69Z" fill="black"/>
<path d="M151.293 133.69H145.259V139.724H151.293V133.69Z" fill="black"/>
<path d="M157.328 133.69H151.293V139.724H157.328V133.69Z" fill="black"/>
<path d="M163.362 133.69H157.328V139.724H163.362V133.69Z" fill="black"/>
<path d="M181.466 133.69H175.431V139.724H181.466V133.69Z" fill="black"/>
<path d="M187.5 133.69H181.466V139.724H187.5V133.69Z" fill="black"/>
<path d="M66.8103 139.724H60.7759V145.759H66.8103V139.724Z" fill="black"/>
<path d="M90.9483 139.724H84.9138V145.759H90.9483V139.724Z" fill="black"/>
<path d="M103.017 139.724H96.9828V145.759H103.017V139.724Z" fill="black"/>
<path d="M109.052 139.724H103.017V145.759H109.052V139.724Z" fill="black"/>
<path d="M115.086 139.724H109.052V145.759H115.086V139.724Z" fill="black"/>
<path d="M121.121 139.724H115.086V145.759H121.121V139.724Z" fill="black"/>
<path d="M127.155 139.724H121.121V145.759H127.155V139.724Z" fill="black"/>
<path d="M139.224 139.724H133.19V145.759H139.224V139.724Z" fill="black"/>
<path d="M163.362 139.724H157.328V145.759H163.362V139.724Z" fill="black"/>
<path d="M175.431 139.724H169.397V145.759H175.431V139.724Z" fill="black"/>
<path d="M181.466 139.724H175.431V145.759H181.466V139.724Z" fill="black"/>
<path d="M18.5345 145.759H12.5V151.793H18.5345V145.759Z" fill="black"/>
<path d="M24.569 145.759H18.5345V151.793H24.569V145.759Z" fill="black"/>
<path d="M30.6034 145.759H24.569V151.793H30.6034V145.759Z" fill="black"/>
<path d="M36.6379 145.759H30.6034V151.793H36.6379V145.759Z" fill="black"/>
<path d="M42.6724 145.759H36.6379V151.793H42.6724V145.759Z" fill="black"/>
<path d="M48.7069 145.759H42.6724V151.793H48.7069V145.759Z" fill="black"/>
<path d="M54.7414 145.759H48.7069V151.793H54.7414V145.759Z" fill="black"/>
<path d="M72.8448 145.759H66.8103V151.793H72.8448V145.759Z" fill="black"/>
<path d="M84.9138 145.759H78.8793V151.793H84.9138V145.759Z" fill="black"/>
<path d="M90.9483 145.759H84.9138V151.793H90.9483V145.759Z" fill="black"/>
<path d="M103.017 145.759H96.9828V151.793H103.017V145.759Z" fill="black"/>
<path d="M121.121 145.759H115.086V151.793H121.121V145.759Z" fill="black"/>
<path d="M139.224 145.759H133.19V151.793H139.224V145.759Z" fill="black"/>
<path d="M151.293 145.759H145.259V151.793H151.293V145.759Z" fill="black"/>
<path d="M163.362 145.759H157.328V151.793H163.362V145.759Z" fill="black"/>
<path d="M169.397 145.759H163.362V151.793H169.397V145.759Z" fill="black"/>
<path d="M187.5 145.759H181.466V151.793H187.5V145.759Z" fill="black"/>
<path d="M18.5345 151.793H12.5V157.828H18.5345V151.793Z" fill="black"/>
<path d="M54.7414 151.793H48.7069V157.828H54.7414V151.793Z" fill="black"/>
<path d="M66.8103 151.793H60.7759V157.828H66.8103V151.793Z" fill="black"/>
<path d="M78.8793 151.793H72.8448V157.828H78.8793V151.793Z" fill="black"/>
<path d="M84.9138 151.793H78.8793V157.828H84.9138V151.793Z" fill="black"/>
<path d="M96.9828 151.793H90.9483V157.828H96.9828V151.793Z" fill="black"/>
<path d="M121.121 151.793H115.086V157.828H121.121V151.793Z" fill="black"/>
<path d="M127.155 151.793H121.121V157.828H127.155V151.793Z" fill="black"/>
<path d="M133.19 151.793H127.155V157.828H133.19V151.793Z" fill="black"/>
<path d="M139.224 151.793H133.19V157.828H139.224V151.793Z" fill="black"/>
<path d="M163.362 151.793H157.328V157.828H163.362V151.793Z" fill="black"/>
<path d="M169.397 151.793H163.362V157.828H169.397V151.793Z" fill="black"/>
<path d="M181.466 151.793H175.431V157.828H181.466V151.793Z" fill="black"/>
<path d="M18.5345 157.828H12.5V163.862H18.5345V157.828Z" fill="black"/>
<path d="M30.6034 157.828H24.569V163.862H30.6034V157.828Z" fill="black"/>
<path d="M36.6379 157.828H30.6034V163.862H36.6379V157.828Z" fill="black"/>
<path d="M42.6724 157.828H36.6379V163.862H42.6724V157.828Z" fill="black"/>
<path d="M54.7414 157.828H48.7069V163.862H54.7414V157.828Z" fill="black"/>
<path d="M78.8793 157.828H72.8448V163.862H78.8793V157.828Z" fill="black"/>
<path d="M84.9138 157.828H78.8793V163.862H84.9138V157.828Z" fill="black"/>
<path d="M103.017 157.828H96.9828V163.862H103.017V157.828Z" fill="black"/>
<path d="M109.052 157.828H103.017V163.862H109.052V157.828Z" fill="black"/>
<path d="M127.155 157.828H121.121V163.862H127.155V157.828Z" fill="black"/>
<path d="M133.19 157.828H127.155V163.862H133.19V157.828Z" fill="black"/>
<path d="M139.224 157.828H133.19V163.862H139.224V157.828Z" fill="black"/>
<path d="M145.259 157.828H139.224V163.862H145.259V157.828Z" fill="black"/>
<path d="M151.293 157.828H145.259V163.862H151.293V157.828Z" fill="black"/>
<path d="M157.328 157.828H151.293V163.862H157.328V157.828Z" fill="black"/>
<path d="M163.362 157.828H157.328V163.862H163.362V157.828Z" fill="black"/>
<path d="M169.397 157.828H163.362V163.862H169.397V157.828Z" fill="black"/>
<path d="M175.431 157.828H169.397V163.862H175.431V157.828Z" fill="black"/>
<path d="M181.466 157.828H175.431V163.862H181.466V157.828Z" fill="black"/>
<path d="M187.5 157.828H181.466V163.862H187.5V157.828Z" fill="black"/>
<path d="M18.5345 163.862H12.5V169.897H18.5345V163.862Z" fill="black"/>
<path d="M30.6034 163.862H24.569V169.897H30.6034V163.862Z" fill="black"/>
<path d="M36.6379 163.862H30.6034V169.897H36.6379V163.862Z" fill="black"/>
<path d="M42.6724 163.862H36.6379V169.897H42.6724V163.862Z" fill="black"/>
<path d="M54.7414 163.862H48.7069V169.897H54.7414V163.862Z" fill="black"/>
<path d="M72.8448 163.862H66.8103V169.897H72.8448V163.862Z" fill="black"/>
<path d="M78.8793 163.862H72.8448V169.897H78.8793V163.862Z" fill="black"/>
<path d="M84.9138 163.862H78.8793V169.897H84.9138V163.862Z" fill="black"/>
<path d="M90.9483 163.862H84.9138V169.897H90.9483V163.862Z" fill="black"/>
<path d="M109.052 163.862H103.017V169.897H109.052V163.862Z" fill="black"/>
<path d="M115.086 163.862H109.052V169.897H115.086V163.862Z" fill="black"/>
<path d="M127.155 163.862H121.121V169.897H127.155V163.862Z" fill="black"/>
<path d="M163.362 163.862H157.328V169.897H163.362V163.862Z" fill="black"/>
<path d="M169.397 163.862H163.362V169.897H169.397V163.862Z" fill="black"/>
<path d="M18.5345 169.897H12.5V175.931H18.5345V169.897Z" fill="black"/>
<path d="M30.6034 169.897H24.569V175.931H30.6034V169.897Z" fill="black"/>
<path d="M36.6379 169.897H30.6034V175.931H36.6379V169.897Z" fill="black"/>
<path d="M42.6724 169.897H36.6379V175.931H42.6724V169.897Z" fill="black"/>
<path d="M54.7414 169.897H48.7069V175.931H54.7414V169.897Z" fill="black"/>
<path d="M78.8793 169.897H72.8448V175.931H78.8793V169.897Z" fill="black"/>
<path d="M84.9138 169.897H78.8793V175.931H84.9138V169.897Z" fill="black"/>
<path d="M96.9828 169.897H90.9483V175.931H96.9828V169.897Z" fill="black"/>
<path d="M103.017 169.897H96.9828V175.931H103.017V169.897Z" fill="black"/>
<path d="M139.224 169.897H133.19V175.931H139.224V169.897Z" fill="black"/>
<path d="M145.259 169.897H139.224V175.931H145.259V169.897Z" fill="black"/>
<path d="M157.328 169.897H151.293V175.931H157.328V169.897Z" fill="black"/>
<path d="M18.5345 175.931H12.5V181.966H18.5345V175.931Z" fill="black"/>
<path d="M54.7414 175.931H48.7069V181.966H54.7414V175.931Z" fill="black"/>
<path d="M78.8793 175.931H72.8448V181.966H78.8793V175.931Z" fill="black"/>
<path d="M84.9138 175.931H78.8793V181.966H84.9138V175.931Z" fill="black"/>
<path d="M90.9483 175.931H84.9138V181.966H90.9483V175.931Z" fill="black"/>
<path d="M103.017 175.931H96.9828V181.966H103.017V175.931Z" fill="black"/>
<path d="M109.052 175.931H103.017V181.966H109.052V175.931Z" fill="black"/>
<path d="M115.086 175.931H109.052V181.966H115.086V175.931Z" fill="black"/>
<path d="M127.155 175.931H121.121V181.966H127.155V175.931Z" fill="black"/>
<path d="M133.19 175.931H127.155V181.966H133.19V175.931Z" fill="black"/>
<path d="M145.259 175.931H139.224V181.966H145.259V175.931Z" fill="black"/>
<path d="M151.293 175.931H145.259V181.966H151.293V175.931Z" fill="black"/>
<path d="M157.328 175.931H151.293V181.966H157.328V175.931Z" fill="black"/>
<path d="M163.362 175.931H157.328V181.966H163.362V175.931Z" fill="black"/>
<path d="M181.466 175.931H175.431V181.966H181.466V175.931Z" fill="black"/>
<path d="M187.5 175.931H181.466V181.966H187.5V175.931Z" fill="black"/>
<path d="M18.5345 181.966H12.5V188H18.5345V181.966Z" fill="black"/>
<path d="M24.569 181.966H18.5345V188H24.569V181.966Z" fill="black"/>
<path d="M30.6034 181.966H24.569V188H30.6034V181.966Z" fill="black"/>
<path d="M36.6379 181.966H30.6034V188H36.6379V181.966Z" fill="black"/>
<path d="M42.6724 181.966H36.6379V188H42.6724V181.966Z" fill="black"/>
<path d="M48.7069 181.966H42.6724V188H48.7069V181.966Z" fill="black"/>
<path d="M54.7414 181.966H48.7069V188H54.7414V181.966Z" fill="black"/>
<path d="M72.8448 181.966H66.8103V188H72.8448V181.966Z" fill="black"/>
<path d="M90.9483 181.966H84.9138V188H90.9483V181.966Z" fill="black"/>
<path d="M103.017 181.966H96.9828V188H103.017V181.966Z" fill="black"/>
<path d="M121.121 181.966H115.086V188H121.121V181.966Z" fill="black"/>
<path d="M127.155 181.966H121.121V188H127.155V181.966Z" fill="black"/>
<path d="M133.19 181.966H127.155V188H133.19V181.966Z" fill="black"/>
<path d="M145.259 181.966H139.224V188H145.259V181.966Z" fill="black"/>
<path d="M169.397 181.966H163.362V188H169.397V181.966Z" fill="black"/>
<path d="M175.431 181.966H169.397V188H175.431V181.966Z" fill="black"/>
</g>
<defs>
<clipPath id="clip0_2501_123626">
<rect width="200" height="200" fill="white" transform="translate(0 0.5)"/>
</clipPath>
</defs>
</svg>
