<svg width="20" height="24" viewBox="0 0 20 24" fill="none" xmlns="http://www.w3.org/2000/svg">
<path d="M16.3642 12.72C16.3754 11.8521 16.606 11.0011 17.0344 10.2461C17.4629 9.49122 18.0753 8.85695 18.8148 8.40233C18.345 7.73143 17.7253 7.17931 17.0049 6.78982C16.2844 6.40032 15.483 6.18419 14.6644 6.15857C12.9182 5.97527 11.2253 7.20349 10.3354 7.20349C9.42834 7.20349 8.05828 6.17677 6.58294 6.20712C5.62865 6.23795 4.69863 6.51545 3.88348 7.01259C3.06833 7.50972 2.39585 8.20953 1.93157 9.04382C-0.0795401 12.5258 1.42057 17.6432 3.34708 20.4578C4.31096 21.8361 5.43745 23.3756 6.91146 23.321C8.35386 23.2611 8.89257 22.4012 10.6337 22.4012C12.3586 22.4012 12.864 23.321 14.3679 23.2863C15.9157 23.2611 16.8909 21.9019 17.8209 20.5106C18.5135 19.5286 19.0464 18.4432 19.3999 17.2947C18.5007 16.9144 17.7334 16.2778 17.1935 15.4643C16.6537 14.6508 16.3653 13.6964 16.3642 12.72Z" fill="#100D13"/>
<path d="M13.5245 4.3075C14.3684 3.29443 14.7842 1.99229 14.6835 0.677612C13.3942 0.813027 12.2033 1.42923 11.348 2.40343C10.9298 2.87936 10.6095 3.43304 10.4054 4.03282C10.2013 4.6326 10.1175 5.26672 10.1586 5.89893C10.8035 5.90557 11.4415 5.76579 12.0245 5.49013C12.6075 5.21447 13.1204 4.81011 13.5245 4.3075Z" fill="#100D13"/>
</svg>
