<svg width="25" height="24" viewBox="0 0 25 24" fill="none" xmlns="http://www.w3.org/2000/svg">
<path d="M11.1581 10.1597L10.3281 12.7097L12.4981 14.2797L14.6681 12.7097L13.8381 10.1597H11.1581Z" fill="white"/>
<path d="M20.9909 11.73C20.9909 11.6 20.9809 11.48 20.9709 11.35C20.9509 11.14 20.9309 10.92 20.8909 10.71C20.8809 10.61 20.8609 10.51 20.8409 10.42C20.8309 10.33 20.8109 10.23 20.7909 10.14C20.7709 10.05 20.7509 9.96 20.7209 9.88C20.6909 9.74 20.6509 9.61 20.6109 9.48C20.5709 9.35 20.5309 9.23 20.4809 9.1C20.4709 9.09 20.4709 9.08 20.4609 9.07C20.4209 8.95 20.3709 8.82 20.3209 8.7C20.2709 8.57 20.2109 8.45 20.1509 8.33C20.0909 8.2 20.0309 8.08 19.9709 7.96C19.9609 7.96 19.9509 7.95 19.9509 7.93C19.8909 7.82 19.8209 7.71 19.7509 7.6C19.6809 7.48 19.6109 7.36 19.5309 7.25C19.5109 7.22 19.5009 7.19 19.4709 7.17C19.4709 7.15 19.4509 7.14 19.4409 7.12C19.3909 7.05 19.3409 6.98 19.2909 6.92C18.8609 6.35 18.3509 5.83 17.8009 5.37C17.7209 5.31 17.6509 5.25 17.5609 5.19C17.4509 5.11 17.3409 5.03 17.2309 4.95C17.0009 4.8 16.7709 4.65 16.5309 4.52C16.1709 4.32 15.8009 4.15 15.4109 4.01C15.2709 3.95 15.1209 3.9 14.9809 3.86C14.9709 3.86 14.9609 3.85 14.9509 3.85C14.8309 3.82 14.7209 3.78 14.6009 3.77C14.4009 3.72 14.2209 3.68 14.0209 3.64C13.8509 3.61 13.6709 3.58 13.4909 3.56C13.3609 3.54 13.2309 3.53 13.0909 3.53C12.8909 3.51 12.6709 3.5 12.4709 3.5C12.4609 3.5 12.4609 3.5 12.4509 3.5C12.2509 3.5 12.0409 3.51 11.8409 3.53C11.7109 3.54 11.5909 3.55 11.4709 3.56C11.2709 3.59 11.0909 3.61 10.9009 3.64C10.7109 3.67 10.5309 3.72 10.3509 3.77C10.2309 3.79 10.1209 3.82 10.0109 3.85C9.99094 3.86 9.98094 3.86 9.96094 3.88H9.95094C9.55094 4 9.16094 4.15 8.79094 4.34C8.66094 4.4 8.54094 4.46 8.42094 4.53C8.18094 4.66 7.95094 4.8 7.72094 4.96C7.61094 5.04 7.50094 5.11 7.39094 5.2C7.30094 5.27 7.20094 5.34 7.12094 5.4C7.09094 5.44 7.05094 5.47 7.01094 5.49C6.92094 5.57 6.84094 5.63 6.76094 5.71C6.36094 6.08 5.99094 6.48 5.66094 6.92C5.63094 6.96 5.59094 7.01 5.57094 7.06C5.56094 7.07 5.55094 7.07 5.55094 7.08C5.53094 7.09 5.52094 7.11 5.52094 7.12C5.52094 7.13 5.51094 7.13 5.51094 7.14C5.48094 7.17 5.45094 7.22 5.43094 7.26C5.26094 7.51 5.11094 7.77 4.96094 8.03C4.91094 8.13 4.86094 8.23 4.82094 8.33C4.70094 8.58 4.59094 8.83 4.50094 9.09C4.45094 9.23 4.41094 9.35 4.36094 9.49C4.28094 9.74 4.22094 9.98 4.16094 10.25C4.15094 10.28 4.14094 10.32 4.13094 10.36C4.10094 10.48 4.09094 10.6 4.07094 10.73C4.04094 10.87 4.03094 11.01 4.01094 11.16C4.00094 11.24 3.99094 11.32 3.99094 11.41C3.97094 11.52 3.97094 11.62 3.97094 11.73C3.96094 11.76 3.96094 11.79 3.96094 11.82V11.86V12C3.96094 12.2 3.97094 12.4 3.99094 12.6C4.00094 12.84 4.02094 13.06 4.07094 13.29C4.08094 13.39 4.10094 13.49 4.12094 13.6C4.13094 13.68 4.15094 13.74 4.16094 13.81C4.21094 14.04 4.26094 14.26 4.33094 14.47C4.34094 14.5 4.35094 14.52 4.36094 14.55C4.39094 14.67 4.44094 14.78 4.48094 14.89C4.52094 15.03 4.58094 15.16 4.64094 15.31C4.69094 15.44 4.75094 15.56 4.81094 15.68C5.04094 16.16 5.32094 16.62 5.64094 17.06C5.67094 17.09 5.68094 17.12 5.71094 17.15C6.11094 17.67 6.56094 18.14 7.06094 18.56C7.16094 18.65 7.27094 18.73 7.38094 18.81C7.49094 18.89 7.60094 18.97 7.71094 19.05C7.82094 19.13 7.94094 19.2 8.06094 19.27C8.56094 19.58 9.10094 19.83 9.65094 20.03C9.66094 20.04 9.68094 20.04 9.69094 20.05H9.70094C9.73094 20.07 9.77094 20.08 9.80094 20.08C9.83094 20.1 9.85094 20.11 9.88094 20.11C9.94094 20.14 9.99094 20.15 10.0509 20.17C10.2109 20.22 10.3809 20.26 10.5609 20.3C10.7109 20.34 10.8709 20.38 11.0309 20.39C11.3009 20.44 11.5809 20.48 11.8609 20.49C12.0609 20.51 12.2609 20.52 12.4609 20.52C12.6609 20.52 12.8609 20.51 13.0609 20.49C13.3409 20.47 13.6209 20.44 13.8909 20.39C14.0409 20.37 14.2009 20.34 14.3609 20.3C14.5309 20.27 14.7009 20.22 14.8709 20.17C14.9509 20.14 15.0409 20.12 15.1209 20.09C15.1309 20.09 15.1409 20.09 15.1409 20.09C15.1709 20.08 15.2009 20.07 15.2309 20.06C15.2509 20.05 15.2609 20.05 15.2709 20.04C15.5709 19.94 15.8609 19.82 16.1309 19.68C16.3809 19.55 16.6209 19.43 16.8609 19.28C16.9809 19.21 17.1009 19.14 17.2109 19.06C17.3209 18.98 17.4309 18.91 17.5409 18.82C18.0409 18.45 18.4909 18.02 18.9109 17.55C18.9909 17.45 19.0809 17.35 19.1609 17.24C19.1709 17.22 19.1909 17.21 19.2009 17.19C19.2109 17.18 19.2309 17.16 19.2309 17.16V17.15C19.2409 17.14 19.2409 17.14 19.2409 17.13C19.3309 17.01 19.4209 16.89 19.5009 16.76C19.5809 16.65 19.6509 16.53 19.7209 16.41C19.8009 16.3 19.8609 16.18 19.9209 16.06C20.1209 15.69 20.2909 15.32 20.4309 14.93C20.4709 14.81 20.5109 14.69 20.5509 14.57C20.6009 14.43 20.6409 14.27 20.6809 14.13C20.7109 14.04 20.7309 13.94 20.7509 13.85C20.7809 13.76 20.7909 13.66 20.8109 13.56C20.8309 13.48 20.8409 13.39 20.8509 13.3C20.8809 13.08 20.9109 12.85 20.9309 12.62C20.9509 12.42 20.9609 12.21 20.9609 12.01V11.87V11.84C21.0009 11.79 21.0009 11.75 20.9909 11.73ZM19.2209 13.67L18.7909 14.04V14.05L19.0409 15.09C19.0409 15.1 19.0409 15.1 19.0409 15.1C18.7909 15.64 18.4609 16.14 18.0909 16.6L17.9509 15.99L17.5609 14.32H17.5509L15.5509 13.66H15.5409L13.1509 15.39V17.5L15.1409 18.72C14.6009 18.94 14.0309 19.09 13.4409 19.16H13.4309L12.5009 18.6L11.5809 19.17C10.9809 19.09 10.4109 18.95 9.87094 18.73L11.8609 17.51V15.4L9.47094 13.67H9.46094L7.46094 14.32H7.45094L7.05094 16.05L6.91094 16.61C6.54094 16.15 6.21094 15.65 5.96094 15.11C5.96094 15.11 5.96094 15.11 5.96094 15.1C5.96094 15.1 5.96094 15.1 5.96094 15.09L6.21094 14.04V14.03L5.39094 13.33C5.38094 13.33 5.38094 13.32 5.38094 13.32C5.30094 12.89 5.26094 12.44 5.26094 11.99C5.26094 11.84 5.27094 11.69 5.28094 11.54L7.06094 13.08L9.07094 12.44V12.43L9.98094 9.62L8.76094 7.9L8.50094 7.93L6.43094 8.08C6.75094 7.58 7.14094 7.13 7.57094 6.72L8.63094 6.64L9.04094 5.65C9.55094 5.37 10.1009 5.15 10.6809 5L10.1909 6.21L9.80094 7.16L9.96094 7.39L11.0109 8.88H11.0209H13.9909L15.2309 7.18V7.17L14.3209 5.01C14.9109 5.15 15.4709 5.38 15.9909 5.67L16.3909 6.65L16.4009 6.66L17.4409 6.74H17.4509C17.8809 7.14 18.2709 7.59 18.5909 8.09L16.2709 7.93L15.0309 9.63L15.9409 12.45L16.1909 12.54L17.9409 13.12V13.1L19.7209 11.56H19.7309C19.7309 11.7 19.7409 11.85 19.7409 11.99C19.7409 12.45 19.7009 12.9 19.6109 13.33L19.2209 13.67Z" fill="white"/>
</svg>
