<svg width="24" height="26" viewBox="0 0 24 26" fill="none" xmlns="http://www.w3.org/2000/svg">
<path d="M10.959 12.4232L0.3125 23.7232C0.3129 23.7256 0.3137 23.7275 0.3141 23.7299C0.6406 24.9568 1.7613 25.8604 3.0914 25.8604C3.6231 25.8604 4.1223 25.7166 4.5504 25.4643L4.5844 25.4443L16.5684 18.5291L10.959 12.4232Z" fill="#EA4335"/>
<path d="M21.7317 10.4989L21.7215 10.4919L16.5477 7.49263L10.7188 12.6794L16.568 18.5278L21.7144 15.5583C22.6167 15.0712 23.2293 14.12 23.2293 13.0231C23.2293 11.9341 22.6249 10.9876 21.7317 10.4989Z" fill="#FBBC04"/>
<path d="M0.31639 2.27623C0.25239 2.51223 0.21875 2.75943 0.21875 3.01612V22.9837C0.21875 23.2399 0.25199 23.488 0.31679 23.7231L11.3297 12.7122L0.31639 2.27623Z" fill="#4285F4"/>
<path d="M11.0379 13L16.5485 7.491L4.5781 0.550799C4.143 0.290199 3.6352 0.139801 3.0918 0.139801C1.7617 0.139801 0.6395 1.0449 0.3129 2.2734C0.3125 2.2746 0.3125 2.2754 0.3125 2.2765L11.0379 13Z" fill="#34A853"/>
</svg>
