<svg width="24" height="24" viewBox="0 0 24 24" fill="none" xmlns="http://www.w3.org/2000/svg">
<path fill-rule="evenodd" clip-rule="evenodd" d="M12.0005 0C8.74131 0 8.33264 0.0138144 7.05267 0.0722159C5.77536 0.130474 4.90301 0.333355 4.13969 0.630031C3.35056 0.936663 2.68132 1.347 2.01414 2.01414C1.347 2.68132 0.936663 3.35056 0.630031 4.13969C0.333355 4.90301 0.130474 5.77536 0.0722159 7.05267C0.0138144 8.33264 0 8.74131 0 12.0005C0 15.2596 0.0138144 15.6682 0.0722159 16.9482C0.130474 18.2255 0.333355 19.0979 0.630031 19.8612C0.936663 20.6503 1.347 21.3195 2.01414 21.9867C2.68132 22.6539 3.35056 23.0642 4.13969 23.3709C4.90301 23.6675 5.77536 23.8704 7.05267 23.9287C8.33264 23.9871 8.74131 24.0009 12.0005 24.0009C15.2596 24.0009 15.6682 23.9871 16.9482 23.9287C18.2255 23.8704 19.0979 23.6675 19.8612 23.3709C20.6503 23.0642 21.3195 22.6539 21.9867 21.9867C22.6539 21.3195 23.0642 20.6503 23.3709 19.8612C23.6675 19.0979 23.8704 18.2255 23.9287 16.9482C23.9871 15.6682 24.0009 15.2596 24.0009 12.0005C24.0009 8.74131 23.9871 8.33264 23.9287 7.05267C23.8704 5.77536 23.6675 4.90301 23.3709 4.13969C23.0642 3.35056 22.6539 2.68132 21.9867 2.01414C21.3195 1.347 20.6503 0.936663 19.8612 0.630031C19.0979 0.333355 18.2255 0.130474 16.9482 0.0722159C15.6682 0.0138144 15.2596 0 12.0005 0ZM12.0023 2.16406C15.2065 2.16406 15.5861 2.1763 16.8515 2.23404C18.0215 2.28739 18.6569 2.48289 19.0798 2.64723C19.6399 2.86493 20.0397 3.12497 20.4596 3.54493C20.8795 3.96484 21.1396 4.3646 21.3573 4.92475C21.5216 5.34761 21.7171 5.98302 21.7705 7.15305C21.8282 8.41845 21.8405 8.79801 21.8405 12.0023C21.8405 15.2065 21.8282 15.5861 21.7705 16.8515C21.7171 18.0215 21.5216 18.6569 21.3573 19.0798C21.1396 19.6399 20.8795 20.0397 20.4596 20.4596C20.0397 20.8795 19.6399 21.1396 19.0798 21.3573C18.6569 21.5216 18.0215 21.7171 16.8515 21.7705C15.5863 21.8282 15.2067 21.8405 12.0023 21.8405C8.79778 21.8405 8.41831 21.8282 7.15305 21.7705C5.98302 21.7171 5.34761 21.5216 4.92475 21.3573C4.3646 21.1396 3.96484 20.8795 3.54493 20.4596C3.12502 20.0397 2.86493 19.6399 2.64723 19.0798C2.48289 18.6569 2.28739 18.0215 2.23404 16.8515C2.1763 15.5861 2.16406 15.2065 2.16406 12.0023C2.16406 8.79801 2.1763 8.41845 2.23404 7.15305C2.28739 5.98302 2.48289 5.34761 2.64723 4.92475C2.86493 4.3646 3.12497 3.96484 3.54493 3.54493C3.96484 3.12497 4.3646 2.86493 4.92475 2.64723C5.34761 2.48289 5.98302 2.28739 7.15305 2.23404C8.41845 2.1763 8.79801 2.16406 12.0023 2.16406ZM5.8418 12.0042C5.8418 8.60077 8.60077 5.8418 12.0042 5.8418C15.4076 5.8418 18.1666 8.60077 18.1666 12.0042C18.1666 15.4076 15.4076 18.1666 12.0042 18.1666C8.60077 18.1666 5.8418 15.4076 5.8418 12.0042ZM12.0002 16.0042C9.79092 16.0042 8 14.2133 8 12.0041C8 9.79482 9.79092 8.00391 12.0002 8.00391C14.2094 8.00391 16.0003 9.79482 16.0003 12.0041C16.0003 14.2133 14.2094 16.0042 12.0002 16.0042ZM18.4068 7.04222C19.2022 7.04222 19.8469 6.39751 19.8469 5.60219C19.8469 4.80686 19.2022 4.16211 18.4068 4.16211C17.6115 4.16211 16.9668 4.80686 16.9668 5.60219C16.9668 6.39751 17.6115 7.04222 18.4068 7.04222Z" fill="white"/>
</svg>
