<svg width="32" height="32" viewBox="0 0 32 32" fill="none" xmlns="http://www.w3.org/2000/svg">
<path d="M28.002 18.6667L24.0022 14.6667H14.6692C14.3156 14.6667 13.9765 14.5262 13.7264 14.2761C13.4764 14.0261 13.3359 13.687 13.3359 13.3333V5.33333C13.3359 4.97971 13.4764 4.64057 13.7264 4.39052C13.9765 4.14048 14.3156 4 14.6692 4H26.6687C27.0223 4 27.3614 4.14048 27.6115 4.39052C27.8615 4.64057 28.002 4.97971 28.002 5.33333V18.6667Z" stroke="white" stroke-width="2" stroke-linecap="round" stroke-linejoin="round"/>
<path d="M18.666 20.0002V22.6668C18.666 23.0205 18.5256 23.3596 18.2755 23.6096C18.0255 23.8597 17.6864 24.0002 17.3328 24.0002H7.99983L4 28.0002V14.6668C4 14.3132 4.14047 13.9741 4.39051 13.724C4.64055 13.474 4.97967 13.3335 5.33328 13.3335H7.99983" stroke="white" stroke-width="2" stroke-linecap="round" stroke-linejoin="round"/>
</svg>
