<svg width="25" height="24" viewBox="0 0 25 24" fill="none" xmlns="http://www.w3.org/2000/svg">
<path d="M6.6125 21.2494C8.02083 21.2494 9.1625 20.1122 9.1625 18.7094C9.1625 17.3066 8.02083 16.1694 6.6125 16.1694C5.20417 16.1694 4.0625 17.3066 4.0625 18.7094C4.0625 20.1122 5.20417 21.2494 6.6125 21.2494Z" fill="white" stroke="white" stroke-width="1.5" stroke-linecap="round" stroke-linejoin="round"/>
<path d="M9.16406 18.719V10.229" stroke="white" stroke-width="1.5" stroke-linecap="round" stroke-linejoin="round"/>
<path d="M17.8859 17.7094C19.2943 17.7094 20.4359 16.5722 20.4359 15.1694C20.4359 13.7666 19.2943 12.6294 17.8859 12.6294C16.4776 12.6294 15.3359 13.7666 15.3359 15.1694C15.3359 16.5722 16.4776 17.7094 17.8859 17.7094Z" fill="white" stroke="white" stroke-width="1.5" stroke-linecap="round" stroke-linejoin="round"/>
<path d="M20.4241 2.74902V6.68902L9.16406 10.229V6.28902L20.4241 2.74902Z" fill="white" stroke="white" stroke-width="1.5" stroke-linecap="round" stroke-linejoin="round"/>
<path d="M20.4219 15.1795V6.68945" stroke="white" stroke-width="1.5" stroke-linecap="round" stroke-linejoin="round"/>
</svg>
