<svg width="18" height="18" viewBox="0 0 18 18" fill="none" xmlns="http://www.w3.org/2000/svg">
<path d="M7.83635 1.44836C8.25717 0.405234 9.73398 0.405234 10.1548 1.44836L11.7692 5.45012C11.8282 5.59631 11.9646 5.69671 12.1217 5.70953L16.1768 6.04041C17.2763 6.13013 17.7291 7.49631 16.9007 8.22488L13.8236 10.9313C13.7097 11.0314 13.6593 11.1856 13.6919 11.3337L14.6759 15.8062C14.9217 16.9235 13.6619 17.7566 12.73 17.0931L9.23725 14.6062C9.09259 14.5032 8.89856 14.5032 8.7539 14.6062L5.26111 17.0931C4.32924 17.7566 3.0695 16.9235 3.31529 15.8062L4.29928 11.3337C4.33186 11.1856 4.2814 11.0314 4.16751 10.9313L1.09032 8.2249C0.261934 7.49634 0.71465 6.13012 1.81418 6.04041L5.86943 5.70952C6.02655 5.6967 6.16298 5.59631 6.22196 5.45012L7.83635 1.44836Z" fill="#ABABAB"/>
</svg>
