<svg width="20" height="20" viewBox="0 0 20 20" fill="none" xmlns="http://www.w3.org/2000/svg">
<path fill-rule="evenodd" clip-rule="evenodd" d="M10.0026 18.3333C13.6845 18.3333 16.6693 15.3486 16.6693 11.6667C16.6693 7.98477 13.6845 5 10.0026 5C6.32071 5 3.33594 7.98477 3.33594 11.6667C3.33594 15.3486 6.32071 18.3333 10.0026 18.3333ZM10.0026 8.33333C9.54237 8.33333 9.16927 8.70643 9.16927 9.16667V11.6667C9.16927 12.1269 9.54237 12.5 10.0026 12.5C10.4628 12.5 10.8359 12.1269 10.8359 11.6667V9.16667C10.8359 8.70643 10.4628 8.33333 10.0026 8.33333Z" fill="#ABABAB"/>
<path fill-rule="evenodd" clip-rule="evenodd" d="M9.16927 1.66675C8.70903 1.66675 8.33594 2.03984 8.33594 2.50008C8.33594 2.96032 8.70903 3.33341 9.16927 3.33341H10.8359C11.2962 3.33341 11.6693 2.96032 11.6693 2.50008C11.6693 2.03984 11.2962 1.66675 10.8359 1.66675H9.16927ZM15.5026 3.29175C15.1344 3.01561 14.6121 3.09022 14.3359 3.45841C14.0598 3.8266 14.1344 4.34894 14.5026 4.62508L15.3359 5.25008C15.7041 5.52622 16.2265 5.4516 16.5026 5.08341C16.7787 4.71522 16.7041 4.19289 16.3359 3.91675L15.5026 3.29175Z" fill="#ABABAB"/>
</svg>
